<svg xmlns="http://www.w3.org/2000/svg" width="136.134" height="34.196" viewBox="0 0 136.134 34.196"><defs><style>.a{fill:#95c13d;}.b{fill:#d7de1c;}.c{fill:#f29220;}.d{fill:#e21e26;}.e{fill:#f9ba16;}.f{fill:#e75324;}.g{fill:#1cbbee;}.h{fill:#85cff3;}.i{fill:#c7d53e;}</style></defs><g transform="translate(15.123 -13.303)"><g transform="translate(34)"><path d="M0,37.636C0,32.274,3.043,28,8.911,28a5.974,5.974,0,0,1,4.854,2.029V28.145h5.361v17.46c0,6.883-4.709,9.636-9.418,9.636C5.144,55.241.58,52.488.58,48H6.231c0,1.159,1.594,2.029,3.333,2.029,1.956,0,4.057-1.087,4.2-4.347v-.869a6.176,6.176,0,0,1-4.782,1.884C3.043,46.692,0,42.78,0,37.636m5.434.072a3.834,3.834,0,0,0,4.13,3.84,3.957,3.957,0,0,0,4.2-3.912,4.367,4.367,0,0,0-4.2-4.492,4.3,4.3,0,0,0-4.13,4.564" transform="translate(0 -7.742)"/><path d="M36.561,46.709H31.2V28.162h4.854l.217,1.232A5.564,5.564,0,0,1,40.329,27.8a7.329,7.329,0,0,1,2.1.29l-.072,5.071a7.864,7.864,0,0,0-1.811-.29c-1.956,0-3.912,1.087-3.912,3.55l-.072,10.288Z" transform="translate(-8.596 -7.687)"/><path d="M53.315,18.4a3.11,3.11,0,0,1,3.333,3.188A3.224,3.224,0,1,1,53.315,18.4M50.707,44.119h5.506V25.572H50.707Z" transform="translate(-13.831 -5.097)"/><path d="M74.043,28a7.874,7.874,0,0,0-1.3.072L70.42,34.448a4.21,4.21,0,0,1,3.043-1.3,4.157,4.157,0,0,1,4.13,4.492c0,2.246-1.377,4.419-4.13,4.419a4.367,4.367,0,0,1-4.2-4.492V30.029h0V28.145H63.9V52.126h5.361v-7.1a6.3,6.3,0,0,0,4.782,2.029c6.013,0,8.911-4.2,8.984-9.273C82.954,32.709,79.911,28,74.043,28" transform="translate(-17.605 -7.742)"/><path d="M103.915,28a7.874,7.874,0,0,0-1.3.072L100.22,34.52a4.01,4.01,0,0,1,3.043-1.377,4.157,4.157,0,0,1,4.13,4.492c0,2.246-1.377,4.419-4.13,4.419a4.349,4.349,0,0,1-4.2-4.419h0V28.217H93.7V52.2h5.361V45.1a6.3,6.3,0,0,0,4.782,2.029c6.013,0,8.911-4.2,8.984-9.273,0-5.144-3.043-9.853-8.911-9.853" transform="translate(-25.815 -7.742)"/></g><g transform="translate(-15.123 21.9)"><path class="a" d="M103.2,9.573h0A3.559,3.559,0,0,1,106.661,5.9h.071a3.639,3.639,0,0,1,3.6,3.462,3.559,3.559,0,0,1-3.462,3.673H106.8a3.543,3.543,0,0,1-3.6-3.462m3.532-1.837a1.709,1.709,0,0,0-1.7,1.837,1.752,1.752,0,0,0,1.837,1.7,1.709,1.709,0,0,0,1.7-1.837,1.848,1.848,0,0,0-1.837-1.7h0" transform="translate(-79.11 -1.661)"/><path class="b" d="M89.2,5.873h0a3.569,3.569,0,1,1,3.673,3.462H92.8a3.456,3.456,0,0,1-3.6-3.462m3.532-1.837a1.709,1.709,0,0,0-1.7,1.837,1.691,1.691,0,0,0,1.766,1.7h.071a1.709,1.709,0,0,0,1.7-1.837,1.848,1.848,0,0,0-1.837-1.7h0" transform="translate(-75 -0.574)"/><path class="c" d="M82.8,19.073h0A3.559,3.559,0,0,1,86.261,15.4a3.621,3.621,0,0,1,3.673,3.462,3.513,3.513,0,0,1-.989,2.543,3.672,3.672,0,0,1-2.473,1.13H86.4a3.591,3.591,0,0,1-3.6-3.462m3.532-1.837a1.768,1.768,0,0,0,.141,3.532,1.509,1.509,0,0,0,1.2-.565,1.7,1.7,0,0,0,.495-1.272,1.509,1.509,0,0,0-.565-1.2,1.7,1.7,0,0,0-1.272-.495h0" transform="translate(-73.121 -4.45)"/><path class="d" d="M69.2,10.273h0A3.559,3.559,0,0,1,72.661,6.6a3.621,3.621,0,0,1,3.673,3.462,3.621,3.621,0,0,1-3.462,3.673H72.8a3.545,3.545,0,0,1-3.6-3.462m3.532-1.837a1.709,1.709,0,0,0-1.7,1.837,1.752,1.752,0,0,0,1.837,1.7,1.509,1.509,0,0,0,1.2-.565,1.7,1.7,0,0,0,.494-1.272A1.509,1.509,0,0,0,74,8.931a1.7,1.7,0,0,0-1.272-.495h0" transform="translate(-69.128 -1.867)"/><rect class="b" width="1.837" height="5.016" transform="translate(20.094 6.494) rotate(-74.311)"/><rect class="a" width="5.016" height="1.837" transform="translate(30.298 6.026) rotate(-25.227)"/><rect class="c" width="5.016" height="1.837" transform="translate(13.439 11.629) rotate(-61.49)"/><path class="d" d="M81.986,17.633l.918-1.554L77.889,12.9,76.9,14.454Z" transform="translate(-71.39 -3.716)"/><path class="e" d="M85.4,21.765c.071.071.071.141.141.212a1.7,1.7,0,0,0,1.272.495,1.509,1.509,0,0,0,1.2-.565,1.466,1.466,0,0,0,.424-.706,4.656,4.656,0,0,1,1.7.777,3.191,3.191,0,0,1-.777,1.2,3.672,3.672,0,0,1-2.473,1.13h-.071a3.658,3.658,0,0,1-2.473-.989l-.141-.141a3.892,3.892,0,0,1,1.2-1.413" transform="translate(-73.533 -6.153)"/><path class="f" d="M72.632,6.6h.495v.353a3.689,3.689,0,0,1-.283,1.484h-.212a1.709,1.709,0,0,0-1.7,1.837h0v.283a3.83,3.83,0,0,1-1.766.424,2.178,2.178,0,0,1-.071-.706A3.666,3.666,0,0,1,72.632,6.6" transform="translate(-69.1 -1.867)"/><path class="g" d="M117.3,3.573h0A3.559,3.559,0,0,1,120.761-.1,3.7,3.7,0,0,1,123.3.889a3.672,3.672,0,0,1,1.13,2.473,3.621,3.621,0,0,1-3.462,3.673H120.9a3.591,3.591,0,0,1-3.6-3.462m3.532-1.837a1.709,1.709,0,0,0-1.7,1.837,1.691,1.691,0,0,0,1.766,1.7h.071a1.509,1.509,0,0,0,1.2-.565,1.7,1.7,0,0,0,.495-1.272,1.509,1.509,0,0,0-.565-1.2,1.7,1.7,0,0,0-1.272-.495h0" transform="translate(-83.249 0.1)"/><path class="h" d="M123.726,3.462a1.509,1.509,0,0,0-.565-1.2,2,2,0,0,0-1.2-.495h-.071a.637.637,0,0,0-.353.071,3.537,3.537,0,0,1-.636-1.7A3.579,3.579,0,0,1,121.818,0a3.833,3.833,0,0,1,2.543.989,3.672,3.672,0,0,1,1.13,2.473v.212c-.212,0-.353.071-.565.071a5.983,5.983,0,0,1-1.2-.283" transform="translate(-84.307 0.071)"/><path class="i" d="M107.226,14.738h0a3.7,3.7,0,0,1-2.543-.989,1.24,1.24,0,0,1-.283-.353,4.633,4.633,0,0,1,1.342-1.272c.071.071.141.212.212.283a1.7,1.7,0,0,0,1.272.495,1.675,1.675,0,0,0,1.625-1.2,4.468,4.468,0,0,1,1.625.848,3.6,3.6,0,0,1-3.25,2.19" transform="translate(-79.463 -3.364)"/><path class="c" d="M81.654,15.4l2.19,1.413-.918,1.554L80.1,16.6Z" transform="translate(-72.329 -4.45)"/><path class="b" d="M90.2,11.825l.918-1.625,1.554.848L91.26,13.662Z" transform="translate(-75.294 -2.924)"/><path class="a" d="M101.613,7.6l2.049.565-.495,1.766L100.2,9.084c.424-.495.989-1.06,1.413-1.484" transform="translate(-78.23 -2.16)"/><path class="g" d="M114.3,6.813,117.2,5.4l.777,1.7-1.837.848Z" transform="translate(-82.369 -1.515)"/></g></g></svg>